<svg xmlns="http://www.w3.org/2000/svg" width="44" height="40" class="svg replaced-svg"><g fill="#5dd9c1"><path d="M42.4 16.418h-.786a19.932 19.932 0 0 0-39.249.087H1.6a1.6 1.6 0 0 0-1.6 1.6v5.826a1.6 1.6 0 0 0 1.6 1.6h1.244a20 20 0 0 0 6.171 9.64.646.646 0 0 0 .841-.982 18.716 18.716 0 0 1-2.126-2.151 24.693 24.693 0 0 1 3.009-1.039 21.466 21.466 0 0 0 1.623 2.463 25.2 25.2 0 0 0 4.38 4.489 18.458 18.458 0 0 1-3.784-1.586.648.648 0 0 0-.627 1.134 19.947 19.947 0 0 0 28.824-11.933H42.4a1.6 1.6 0 0 0 1.6-1.6v-5.945a1.6 1.6 0 0 0-1.6-1.6Zm-2.1 0h-4.485a23.605 23.605 0 0 0-.182-1.006 22.859 22.859 0 0 0-1.788-5.3c.119-.033.238-.065.357-.1a24.544 24.544 0 0 0 2.894-1 18.532 18.532 0 0 1 3.208 7.4Zm-5.782.087h-6.663a46.512 46.512 0 0 0-.635-5.164 41.645 41.645 0 0 0 5.349-.9 21.543 21.543 0 0 1 1.8 5.237c.057.276.106.553.152.83Zm.663-9.732q.57.572 1.084 1.184a24.847 24.847 0 0 1-2.421.81c-.2.058-.406.113-.61.168a22.754 22.754 0 0 0-1.344-2.136 22.2 22.2 0 0 0-4.552-4.73 18.54 18.54 0 0 1 7.846 4.7ZM23.99 1.399a21 21 0 0 1 6.85 6.15q.59.83 1.095 1.706a40.674 40.674 0 0 1-4.967.809 26.68 26.68 0 0 0-3.3-8.7q.159.014.317.031Zm-1.99-.1h.047a23.276 23.276 0 0 1 3.629 8.884q-2.068.15-4.233.119a67.574 67.574 0 0 1-3.119-.111 23.287 23.287 0 0 1 3.629-8.892H22Zm-1.673.075a26.7 26.7 0 0 0-3.3 8.721 36.907 36.907 0 0 1-5-.762q.523-.913 1.136-1.778a21 21 0 0 1 6.847-6.156q.158-.017.317-.03Zm-3.552 10a46.279 46.279 0 0 0-.63 5.137H9.478c.046-.277.1-.554.153-.83A21.559 21.559 0 0 1 11.4 10.51a37.42 37.42 0 0 0 5.379.857Zm-7.959-4.6a18.54 18.54 0 0 1 7.846-4.7 22.187 22.187 0 0 0-4.552 4.725 22.646 22.646 0 0 0-1.383 2.2 24.637 24.637 0 0 1-3-1.04q.516-.613 1.087-1.188ZM6.9 9.015a25.529 25.529 0 0 0 3.22 1.159 22.867 22.867 0 0 0-1.757 5.238q-.112.546-.2 1.093H3.68a18.531 18.531 0 0 1 3.22-7.49ZM1.6 24.242a.308.308 0 0 1-.307-.309v-5.826a.308.308 0 0 1 .307-.308h18.622a.647.647 0 0 0 0-1.295h-2.783a45.086 45.086 0 0 1 .629-5.037c1.177.076 2.3.109 3.356.125q.382.006.761.006 1.909 0 3.746-.141a45.28 45.28 0 0 1 .563 4.189q.038.429.067.859h-2.31a.647.647 0 0 0 0 1.295h10.007v6.443H1.6Zm32.5 1.294a20.639 20.639 0 0 1-1.538 4.025 41.669 41.669 0 0 0-5.339-.9c.185-1.012.337-2.055.455-3.122H34.1Zm-7.719 0a42.077 42.077 0 0 1-.448 3.007q-2.2-.168-4.513-.136a66.998 66.998 0 0 0-3.362.125 42.2 42.2 0 0 1-.446-3ZM6.908 30.983a18.713 18.713 0 0 1-2.717-5.447h4.374a21.986 21.986 0 0 0 1.559 4.289 25.493 25.493 0 0 0-3.216 1.158ZM9.9 25.536h6.42c.116 1.057.268 2.092.451 3.1a37.419 37.419 0 0 0-5.37.856 20.642 20.642 0 0 1-1.5-3.952ZM20 38.599a22.336 22.336 0 0 1-6.618-5.924 20.1 20.1 0 0 1-1.345-2 36.952 36.952 0 0 1 4.982-.758 33.409 33.409 0 0 0 .906 3.359 25.354 25.354 0 0 0 2.407 5.361c-.111-.01-.222-.022-.332-.034Zm2 .11h-.047a20.878 20.878 0 0 1-2.8-5.842 31.855 31.855 0 0 1-.831-3.049c1.091-.066 2.139-.1 3.119-.111q2.165-.031 4.233.12a31.96 31.96 0 0 1-.829 3.04 20.868 20.868 0 0 1-2.8 5.842H22Zm1.662-.074a25.315 25.315 0 0 0 2.408-5.363 33.189 33.189 0 0 0 .9-3.334 40.67 40.67 0 0 1 4.945.8 20.083 20.083 0 0 1-1.3 1.933 22.337 22.337 0 0 1-6.626 5.928l-.327.032Zm11.522-5.4a18.535 18.535 0 0 1-7.938 4.731 25.2 25.2 0 0 0 4.392-4.5 21.391 21.391 0 0 0 1.584-2.4q.313.084.623.172a24.941 24.941 0 0 1 2.42.809c-.343.407-.7.8-1.082 1.184Zm1.909-2.242a24.564 24.564 0 0 0-2.892-1l-.357-.1a21.979 21.979 0 0 0 1.582-4.324h4.379a18.522 18.522 0 0 1-2.712 5.419Zm5.616-7.051a.308.308 0 0 1-.307.308h-6.854v-6.451H42.4a.309.309 0 0 1 .307.309Zm0 0" data-name="Path 2969"/><path d="M4.889 22.269c0 .1-.144.2-.311.2s-.306-.1-.306-.2v-3.2c0-.115.124-.191.306-.191s.311.077.311.191v1.465a.654.654 0 0 1 .6-.363.918.918 0 0 1 .821.969v1.131c0 .129-.157.2-.31.2s-.306-.067-.306-.2V21.14a.441.441 0 0 0-.415-.43.406.406 0 0 0-.392.43v1.131Zm0 0" data-name="Path 2970"/><path d="M7.668 21.692c0 .186.067.253.268.253h.186a.26.26 0 1 1 0 .52h-.186c-.573 0-.883-.234-.883-.773v-2.315c0-.115.162-.191.306-.191s.31.076.31.191v.821h.563c.1 0 .157.115.157.225s-.057.224-.157.224h-.563v1.045Zm0 0" data-name="Path 2971"/><path d="M9.599 21.692c0 .186.067.253.267.253h.186a.26.26 0 1 1 0 .52h-.186c-.573 0-.883-.234-.883-.773v-2.315c0-.115.162-.191.306-.191s.31.076.31.191v.821h.563c.1 0 .157.115.157.225s-.057.224-.157.224h-.563Zm0 0" data-name="Path 2972"/><path d="M11.513 20.391v.143a.75.75 0 0 1 .644-.363.917.917 0 0 1 .854.969v.391a.948.948 0 0 1-.835.979.709.709 0 0 1-.625-.377v1.193c0 .1-.143.2-.315.2s-.3-.1-.3-.2V20.39c0-.115.129-.191.291-.191s.286.076.286.191Zm.883.75a.448.448 0 0 0-.434-.43.417.417 0 0 0-.41.43v.477a.464.464 0 0 0 .42.353.455.455 0 0 0 .425-.439Zm0 0" data-name="Path 2973"/><path d="M14.757 21.835c0-.42-1.131-.157-1.131-.955 0-.339.215-.711.854-.711.387 0 .759.134.759.31 0 .086-.081.3-.224.3-.115 0-.263-.138-.525-.138-.239 0-.334.119-.334.215 0 .349 1.146.11 1.146.959 0 .425-.315.7-.878.7-.487 0-.864-.2-.864-.411 0-.1.086-.272.205-.272.138 0 .244.215.645.215.28-.003.347-.116.347-.212Zm0 0" data-name="Path 2974"/><path d="M16.564 20.776a.33.33 0 0 1-.32.324.325.325 0 1 1 .32-.324Zm0 1.394a.33.33 0 0 1-.32.325.325.325 0 1 1 .32-.325Zm0 0" data-name="Path 2975"/><path d="M19.29 19a.185.185 0 0 1-.019.086l-1.714 3.466a.208.208 0 0 1-.186.1.223.223 0 0 1-.229-.21.162.162 0 0 1 .024-.081l1.714-3.48a.186.186 0 0 1 .172-.1.231.231 0 0 1 .238.219Zm0 0" data-name="Path 2976"/><path d="M20.727 19a.189.189 0 0 1-.019.086l-1.714 3.466a.207.207 0 0 1-.186.1.223.223 0 0 1-.229-.21.159.159 0 0 1 .024-.081l1.714-3.48a.186.186 0 0 1 .172-.1.232.232 0 0 1 .238.219Zm0 0" data-name="Path 2977"/><path d="M23.483 22.409c-.034.081-.139.11-.243.11s-.225-.038-.253-.11l-.368-1.041-.363 1.036c-.029.076-.143.115-.263.115a.239.239 0 0 1-.239-.115l-.735-1.885a.2.2 0 0 1-.024-.091c0-.148.239-.253.4-.253a.175.175 0 0 1 .176.1l.477 1.356.358-1.179c.034-.11.115-.124.21-.124s.177.014.21.124l.353 1.184.482-1.36a.177.177 0 0 1 .177-.1c.153 0 .4.1.4.258a.175.175 0 0 1-.019.086Zm0 0" data-name="Path 2978"/><path d="M27.075 22.409c-.033.081-.138.11-.243.11s-.224-.038-.253-.11l-.367-1.041-.363 1.036c-.029.076-.143.115-.263.115a.239.239 0 0 1-.239-.115l-.735-1.885a.2.2 0 0 1-.024-.091c0-.148.239-.253.4-.253a.175.175 0 0 1 .177.1l.477 1.356.358-1.179c.033-.11.115-.124.21-.124s.176.014.21.124l.353 1.184.482-1.36a.177.177 0 0 1 .176-.1c.153 0 .4.1.4.258a.175.175 0 0 1-.019.086Zm0 0" data-name="Path 2979"/><path d="M30.662 22.409c-.033.081-.138.11-.243.11s-.224-.038-.253-.11l-.367-1.041-.363 1.036c-.029.076-.143.115-.263.115a.239.239 0 0 1-.239-.115l-.735-1.885a.2.2 0 0 1-.024-.091c0-.148.239-.253.4-.253a.175.175 0 0 1 .177.1l.477 1.356.358-1.179c.033-.11.114-.124.21-.124s.177.014.21.124l.353 1.184.482-1.36a.177.177 0 0 1 .176-.1c.153 0 .4.1.4.258a.175.175 0 0 1-.019.086Zm0 0" data-name="Path 2980"/><path d="m41 19.643-.7-.1-.312-.632a.969.969 0 0 0-1.738 0l-.312.632-.7.1a.969.969 0 0 0-.537 1.653l.5.491-.119.694a.969.969 0 0 0 1.406 1.022l.623-.328.623.328a.969.969 0 0 0 1.406-1.022l-.119-.694.5-.491a.969.969 0 0 0-.537-1.653Zm-.991 1.338a.97.97 0 0 0-.279.858l.037.217-.195-.1a.969.969 0 0 0-.9 0l-.195.1.037-.217a.968.968 0 0 0-.279-.858l-.157-.154.217-.032a.97.97 0 0 0 .73-.53l.1-.2.1.2a.969.969 0 0 0 .73.53l.217.032Zm0 0" data-name="Path 2981"/></g></svg>