<svg xmlns="http://www.w3.org/2000/svg" width="34" height="40" class="svg replaced-svg"><g fill="#00b4ff"><path d="M12.879 20.653h-1.346a1.346 1.346 0 1 1-2.692 0H7.495a2.692 2.692 0 1 0 5.384 0Z" data-name="Path 2982"/><path d="m30.493 20.549-3.973-1.057v-.789a5.977 5.977 0 0 0 3.4-5.357v-.665a.673.673 0 0 0 .68-.665v-2a6.8 6.8 0 0 0-13.6 0v2a.673.673 0 0 0 .68.665v.665a5.977 5.977 0 0 0 3.4 5.357v.789L17.1 20.55a4.873 4.873 0 0 0-.859.333 5.792 5.792 0 0 0 .074-.882v-.666a.673.673 0 0 0 .685-.67v-2a6.8 6.8 0 0 0-13.6 0v2a.673.673 0 0 0 .68.665v.665a5.977 5.977 0 0 0 3.4 5.357v.789L3.5 27.204A4.7 4.7 0 0 0 0 31.698v4.267a.673.673 0 0 0 .68.665h19.04a.673.673 0 0 0 .68-.665v-4.267a4.512 4.512 0 0 0-.352-1.717H33.32a.673.673 0 0 0 .68-.665v-4.272a4.7 4.7 0 0 0-3.507-4.495ZM18.36 10.019a5.441 5.441 0 0 1 10.88 0v1.3a3.375 3.375 0 0 1-2.56-1.807l-.232-.454a.679.679 0 0 0-.5-.359.689.689 0 0 0-.589.186l-1.128 1.1a4.782 4.782 0 0 1-3.365 1.364H18.36Zm.68 3.327v-.665h1.827a6.145 6.145 0 0 0 4.327-1.754l.476-.466a4.715 4.715 0 0 0 2.89 2.078v.807a4.761 4.761 0 0 1-9.52 0Zm6.36 7.149-1.6 1.3-1.6-1.3a.653.653 0 0 0 .237-.5v-.82a6.068 6.068 0 0 0 2.72 0v.82a.653.653 0 0 0 .243.5ZM4.76 16.673a5.441 5.441 0 0 1 10.88 0v1.3a3.375 3.375 0 0 1-2.56-1.808l-.232-.454a.679.679 0 0 0-.5-.359.689.689 0 0 0-.589.186l-1.128 1.1a4.782 4.782 0 0 1-3.365 1.364H4.76ZM5.44 20v-.665h1.827a6.145 6.145 0 0 0 4.327-1.754l.476-.466a4.715 4.715 0 0 0 2.89 2.078V20a4.761 4.761 0 0 1-9.52 0Zm8.166 4.973c0 .024-.006.047-.006.071v1.283l-.68-.181v-.789a6.078 6.078 0 0 0 .686-.384ZM11.8 27.149l-1.6 1.3-1.6-1.3a.652.652 0 0 0 .237-.5v-.82a6.068 6.068 0 0 0 2.72 0v.82a.653.653 0 0 0 .237.494Zm-5.677.738.952-.253 2.448 2v1.682h1.36v-1.688l2.448-2 .952.253v1.154L10.2 33.031l-4.08-3.992Zm12.92 7.418H1.36v-3.607a3.355 3.355 0 0 1 2.5-3.211l.9-.236v1.065a.658.658 0 0 0 .2.47l4.76 4.658a.691.691 0 0 0 .962 0l4.76-4.658a.658.658 0 0 0 .2-.47v-1.065l.894.238a3.357 3.357 0 0 1 2.506 3.209Zm13.6-6.654H19.214a4.764 4.764 0 0 0-2.321-1.447l-1.933-.514v-1.646a3.355 3.355 0 0 1 2.5-3.211l3.208-.854 2.693 2.2a.692.692 0 0 0 .87 0l2.693-2.2 3.206.853a3.357 3.357 0 0 1 2.506 3.211Z" data-name="Path 2983"/><path d="m26.122 31.451-2.692 2.692.952.952 1.542-1.544v5.1H10.446v1.346h16.151a.673.673 0 0 0 .673-.673v-5.773l1.543 1.543.952-.952-2.692-2.691a.673.673 0 0 0-.951 0Z" data-name="Path 2984"/><path d="M10.152 8.749a.691.691 0 0 0 .484-.2l2.742-2.689-.969-.952-1.575 1.543V1.346h15.76V0H10.152a.679.679 0 0 0-.685.673v5.778L7.896 4.908l-.969.952 2.741 2.692a.692.692 0 0 0 .484.197Z" data-name="Path 2985"/></g></svg>