<svg xmlns="http://www.w3.org/2000/svg" width="40" height="40" class="svg replaced-svg"><g fill="#fbc006"><path d="M39.895 27.615a1.993 1.993 0 0 0-1.923-1.391h-.883V4.707a.673.673 0 0 0-.674-.672h-9.442V.672A.673.673 0 0 0 26.299 0H.674A.673.673 0 0 0 0 .672v34.967a.673.673 0 0 0 .674.672h22.285l-.337 1.037a2.022 2.022 0 0 0 3.114 2.258l3.535-2.567a.681.681 0 0 1 .8 0l3.541 2.569a2.023 2.023 0 0 0 3.114-2.259l-1.354-4.16a.664.664 0 0 1 .247-.745l3.54-2.568a1.99 1.99 0 0 0 .731-2.26ZM35.739 5.379v20.846h-2.151a.671.671 0 0 1-.208-.034.686.686 0 0 1-.431-.429l-1.356-4.156a2.025 2.025 0 0 0-3.844 0l-.776 2.376v-6.5h5.395a.673.673 0 1 0 0-1.345h-5.395v-2.69h5.395a.673.673 0 1 0 0-1.345h-5.395V9.414h5.395a.673.673 0 1 0 0-1.345h-5.395v-2.69ZM1.349 34.966V1.345h24.275v24.88h-4.255a2.017 2.017 0 0 0-1.192 3.651l3.546 2.568a.665.665 0 0 1 .248.748l-.579 1.775Zm37.02-6.178-3.547 2.569a2 2 0 0 0-.737 2.251l1.356 4.156a.674.674 0 0 1-1.038.754l-3.544-2.571a2.044 2.044 0 0 0-2.383 0l-3.54 2.569a.674.674 0 0 1-1.039-.754l1.355-4.154a2 2 0 0 0-.737-2.254l-3.544-2.565a.672.672 0 0 1 .4-1.219h4.383a1.89 1.89 0 0 0 .813-.176l.013-.007h.012c.01 0 .016-.012.026-.017a2 2 0 0 0 1.059-1.188l1.356-4.155a.675.675 0 0 1 1.281 0l1.356 4.158a2.023 2.023 0 0 0 1.921 1.389h4.383a.672.672 0 0 1 .4 1.218Zm0 0" data-name="Path 2996"/><path d="M6.118 6.797h14.955a.68.68 0 0 0 0-1.359H6.118a.68.68 0 1 0 0 1.359Zm0 0" data-name="Path 2997"/><path d="M6.118 12.114h14.955a.68.68 0 1 0 0-1.359H6.118a.68.68 0 1 0 0 1.359Zm0 0" data-name="Path 2998"/><path d="M6.118 17.491h14.955a.68.68 0 0 0 0-1.359H6.118a.68.68 0 0 0 0 1.359Zm0 0" data-name="Path 2999"/><path d="M21.752 22.19a.68.68 0 0 0-.68-.68H6.118a.68.68 0 0 0 0 1.359h14.954a.68.68 0 0 0 .68-.679Zm0 0" data-name="Path 3000"/></g></svg>