<svg xmlns="http://www.w3.org/2000/svg" xmlns:xlink="http://www.w3.org/1999/xlink" class="svg replaced-svg" preserveAspectRatio="none" viewBox="0 0 210 251"><defs><clipPath id="f"><use xlink:href="#a"/></clipPath><clipPath id="g"><use xlink:href="#b"/></clipPath><clipPath id="h"><use xlink:href="#c"/></clipPath><clipPath id="i"><use xlink:href="#d"/></clipPath><clipPath id="j"><use xlink:href="#e"/></clipPath></defs><g data-name="Group 978"><g fill="rgba(255,255,255,0.15)" stroke="#fff" data-name="Rectangle 176"><rect width="107" height="128" stroke="none" rx="6"/><rect width="106" height="127" x=".5" y=".5" fill="none" rx="5.5"/></g><g fill="#fff" data-name="Group 965" transform="translate(65.227 13)"><circle cx="1.5" cy="1.5" r="1.5" data-name="Ellipse 34" transform="translate(-.227)"/><circle cx="1.5" cy="1.5" r="1.5" data-name="Ellipse 35" transform="translate(4.773)"/><circle cx="1.5" cy="1.5" r="1.5" data-name="Ellipse 36" transform="translate(9.773)"/><circle cx="1.5" cy="1.5" r="1.5" data-name="Ellipse 37" transform="translate(14.773)"/></g><g fill="#fff" data-name="Group 966"><path d="M87 12h7v1h-7z" data-name="Rectangle 179"/><path d="M87 14h7v1h-7z" data-name="Rectangle 180"/><path d="M87 16h7v1h-7z" data-name="Rectangle 181"/></g><g fill="#fff" data-name="Group 967"><path d="M13 32h50v3H13z" data-name="Rectangle 182"/><path d="M13 38h50v3H13z" data-name="Rectangle 183"/></g><g fill="#fff" data-name="Group 971"><path d="M13 57.999h50v4H13z" data-name="Rectangle 182"/><path d="M13 64.999h50v3H13z" data-name="Rectangle 183"/></g><g fill="#fff" data-name="Group 973"><path d="M13 83h50v3H13z" data-name="Rectangle 182"/><path d="M13 90h50v3H13z" data-name="Rectangle 183"/></g><g data-name="Group 969" transform="translate(69.208 31.243)"><rect width="25" height="11" fill="#fff" data-name="Rectangle 184" rx="3" transform="translate(-.208 -.243)"/><g fill="none" stroke="#e5e5e5" data-name="Group 968"><g data-name="Rectangle 185" transform="translate(7.792 4.757)"><path stroke="none" d="M0 0h8v1H0z"/><rect width="7" x=".5" y=".5"/></g><path d="m13.993 3.644 2.043 2.2-2.043 1.962" data-name="Path 3038"/></g></g><g data-name="Group 970" transform="translate(69.208 56.604)"><rect width="25" height="13" fill="#fff" data-name="Rectangle 184" rx="3" transform="translate(-.208 .396)"/><g fill="none" stroke="#e5e5e5" data-name="Group 968"><g data-name="Rectangle 185" transform="translate(7.792 6.396)"><path stroke="none" d="M0 0h8v1H0z"/><rect width="7" x=".5" y=".5"/></g><path d="m13.993 4.479 2.043 2.2-2.043 1.962" data-name="Path 3038"/></g></g><g data-name="Group 972"><g data-name="Group 968"><g fill="none" stroke="#919191" data-name="Rectangle 185" transform="translate(77 89)"><rect id="a" width="8" stroke="none"/><path d="M0-.5h8m0 1H0M.5 0" clip-path="url(#f)"/></g></g><g data-name="Group 980" transform="translate(69.208 82.989)"><rect width="25" height="11" fill="#fff" data-name="Rectangle 184" rx="3" transform="translate(-.208 .011)"/><g fill="none" stroke="#e5e5e5" data-name="Group 979"><g data-name="Rectangle 187" transform="translate(7.792 5.011)"><path stroke="none" d="M0 0h8v1H0z"/><rect width="7" x=".5" y=".5"/></g><path d="m13.993 3.378 2.043 2.2-2.043 1.962" data-name="Path 3039"/></g></g></g><g data-name="Group 976" transform="translate(31.104 104.16)"><rect width="45" height="14" fill="#fff" data-name="Rectangle 184" rx="3" transform="translate(-.104 -.161)"/><g fill="none" stroke="#e5e5e5" data-name="Group 968"><g data-name="Rectangle 185" transform="translate(16.896 6.84)"><path stroke="none" d="M0 0h8v1H0z"/><rect width="7" x=".5" y=".5"/></g><path d="m23.204 5.053 2.043 2.2-2.043 1.962" data-name="Path 3038"/></g></g><g data-name="Group 977"><g fill="none" stroke="#fff" data-name="Rectangle 179" transform="translate(15 6)"><rect width="18" height="17" stroke="none" rx="6"/><rect width="17" height="16" x=".5" y=".5" rx="5.5"/></g><path fill="#fff" d="M22.75 20a2.75 2.75 0 0 1-.172-5.495 3 3 0 0 1-1.292-2.45A3.137 3.137 0 0 1 24.5 9a3.138 3.138 0 0 1 3.214 3.056 3 3 0 0 1-1.293 2.45A2.75 2.75 0 0 1 26.25 20Z" data-name="Union 1"/></g></g><g data-name="Group 981"><g fill="rgba(255,255,255,0.15)" stroke="#fff" data-name="Rectangle 176" transform="translate(138 68)"><rect width="72" height="84" stroke="none" rx="6"/><rect width="71" height="83" x=".5" y=".5" fill="none" rx="5.5"/></g><g fill="#fff" data-name="Group 965" transform="translate(178.32 75.794)"><circle cx="1.5" cy="1.5" r="1.5" data-name="Ellipse 34" transform="translate(-.32 .206)"/><circle cx="1.5" cy="1.5" r="1.5" data-name="Ellipse 35" transform="translate(3.68 .206)"/><circle cx="1.5" cy="1.5" r="1.5" data-name="Ellipse 36" transform="translate(7.68 .206)"/><circle cx="1.5" cy="1.5" r="1.5" data-name="Ellipse 37" transform="translate(11.68 .206)"/></g><g fill="#fff" data-name="Group 966"><path d="M196 75h5v1h-5z" data-name="Rectangle 179"/><path d="M196 77h5v1h-5z" data-name="Rectangle 180"/><path d="M196 79h5v1h-5z" data-name="Rectangle 181"/></g><g fill="#fff" data-name="Group 967"><path d="M147 89h32v2h-32z" data-name="Rectangle 182"/><path d="M147 94h32v1h-32z" data-name="Rectangle 183"/></g><g fill="#fff" data-name="Group 971"><path d="M147 106h32v2h-32z" data-name="Rectangle 182"/><path d="M147 111h32v1h-32z" data-name="Rectangle 183"/></g><g fill="#fff" data-name="Group 973"><path d="M147 122h32v2h-32z" data-name="Rectangle 182"/><path d="M147 127h32v2h-32z" data-name="Rectangle 183"/></g><g data-name="Group 969" transform="translate(184.642 88.716)"><rect width="17" height="7" fill="#fff" data-name="Rectangle 184" rx="3" transform="translate(.358 .284)"/><g fill="none" stroke="#e5e5e5" data-name="Group 968"><g data-name="Rectangle 185" transform="translate(6.358 3.284)"><path stroke="none" d="M0 0h4v1H0z"/><rect width="3" x=".5" y=".5"/></g><path d="m9.725 2.28 1.308 1.4-1.308 1.255" data-name="Path 3038"/></g></g><g data-name="Group 970" transform="translate(184.642 105.439)"><rect width="17" height="8" fill="#fff" data-name="Rectangle 184" rx="3" transform="translate(.358 -.439)"/><g fill="none" stroke="#e5e5e5" data-name="Group 968"><g data-name="Rectangle 185" transform="translate(6.358 3.561)"><path stroke="none" d="M0 0h4v1H0z"/><rect width="3" x=".5" y=".5"/></g><path d="m9.725 2.726 1.308 1.4-1.308 1.255" data-name="Path 3038"/></g></g><g data-name="Group 972"><g data-name="Group 968"><g fill="none" stroke="#919191" data-name="Rectangle 185" transform="translate(191 126)"><rect id="b" width="4" stroke="none"/><path d="M0-.5h4m0 1H0M.5 0" clip-path="url(#g)"/></g></g><g data-name="Group 980" transform="translate(184.642 122.162)"><rect width="17" height="8" fill="#fff" data-name="Rectangle 184" rx="3" transform="translate(.358 -.162)"/><g fill="none" data-name="Group 979"><g stroke="#ccc" data-name="Rectangle 187" transform="translate(6.358 3.838)"><rect id="c" width="4" stroke="none"/><path d="M0-.5h4m0 1H0M.5 0" clip-path="url(#h)"/></g><path stroke="#e5e5e5" d="m9.725 2.573 1.308 1.4-1.308 1.255" data-name="Path 3039"/><g data-name="Path 3045"><path d="M4.357 3.838h6v1h-6Z"/><path fill="#e5e5e5" d="M4.357 3.838h6v1h-6v-1Z"/></g></g></g></g><g data-name="Group 976" transform="translate(160.317 136.605)"><rect width="28" height="8" fill="#fff" data-name="Rectangle 184" rx="3" transform="translate(-.318 .395)"/><g fill="none" data-name="Group 968"><g data-name="Path 3044"><path d="M10.682 4.395h6v1h-6Z"/><path fill="#e5e5e5" d="M10.682 4.395h6v1h-6v-1Z"/></g><path stroke="#e5e5e5" d="m16.181 2.895 1.308 1.584-1.308 1.416" data-name="Path 3038"/></g></g><g data-name="Group 977"><g fill="none" stroke="#fff" data-name="Rectangle 179" transform="translate(148 72)"><rect width="12" height="11" stroke="none" rx="5"/><rect width="11" height="10" x=".5" y=".5" rx="4.5"/></g><path fill="#fff" d="M153.25 80a1.251 1.251 0 0 1-.1-2.5 1.374 1.374 0 0 1-.578-1.111A1.409 1.409 0 0 1 154 75a1.409 1.409 0 0 1 1.428 1.389 1.374 1.374 0 0 1-.577 1.111 1.251 1.251 0 0 1-.101 2.5Z" data-name="Union 1"/></g></g><g data-name="Group 982"><g fill="rgba(255,255,255,0.15)" stroke="#fff" data-name="Rectangle 176" transform="translate(69 162)"><rect width="72" height="89" stroke="none" rx="6"/><rect width="71" height="88" x=".5" y=".5" fill="none" rx="5.5"/></g><g fill="#fff" data-name="Group 965" transform="translate(107.158 170.334)"><circle cx="1.5" cy="1.5" r="1.5" data-name="Ellipse 34" transform="translate(.842 -.334)"/><circle cx="1.5" cy="1.5" r="1.5" data-name="Ellipse 35" transform="translate(4.841 -.334)"/><circle cx="1.5" cy="1.5" r="1.5" data-name="Ellipse 36" transform="translate(8.842 -.334)"/><circle cx="1.5" cy="1.5" r="1.5" data-name="Ellipse 37" transform="translate(12.842 -.334)"/></g><g data-name="Group 966"><g fill="#fff" data-name="Group 984"><path d="M127 169h4v1h-4z" data-name="Rectangle 179"/><path d="M127 171h4v1h-4z" data-name="Rectangle 180"/><path d="M127 173h4v1h-4z" data-name="Rectangle 181"/></g></g><g fill="#fff" data-name="Group 967"><path d="M77.999 184h34v2h-34z" data-name="Rectangle 182"/><path d="M77.999 189h34v2h-34z" data-name="Rectangle 183"/></g><g fill="#fff" data-name="Group 971"><path d="M77.999 202h34v2h-34z" data-name="Rectangle 182"/><path d="M77.999 207h34v2h-34z" data-name="Rectangle 183"/></g><g fill="#fff" data-name="Group 973"><path d="M77.999 219h34v2h-34z" data-name="Rectangle 182"/><path d="M77.999 224h34v3h-34z" data-name="Rectangle 183"/></g><g data-name="Group 969" transform="translate(114.465 184.132)"><rect width="19" height="8" fill="#fff" data-name="Rectangle 184" rx="3" transform="translate(-.465 -.132)"/><g fill="none" stroke="#e5e5e5" data-name="Group 968"><g data-name="Rectangle 185" transform="translate(6.534 2.868)"><path stroke="none" d="M0 0h4v1H0z"/><rect width="3" x=".5" y=".5"/></g><path d="m10.145 1.848 1.389 1.491-1.389 1.332" data-name="Path 3038"/></g></g><g data-name="Group 970" transform="translate(114.465 201.114)"><rect width="19" height="9" fill="#fff" data-name="Rectangle 184" rx="3" transform="translate(-.465 -.115)"/><g fill="none" stroke="#e5e5e5" data-name="Group 968"><g data-name="Rectangle 185" transform="translate(6.534 3.886)"><path stroke="none" d="M0 0h4v1H0z"/><rect width="3" x=".5" y=".5"/></g><path d="m10.145 3.168 1.389 1.491-1.389 1.332" data-name="Path 3038"/></g></g><g data-name="Group 972"><g data-name="Group 968"><g fill="none" stroke="#919191" data-name="Rectangle 185" transform="translate(120.999 223)"><rect id="d" width="4" stroke="none"/><path d="M0-.5h4m0 1H0M.5 0" clip-path="url(#i)"/></g></g><g data-name="Group 980" transform="translate(114.465 219.158)"><rect width="19" height="9" fill="#fff" data-name="Rectangle 184" rx="3" transform="translate(-.465 -.158)"/><g fill="none" data-name="Group 979"><g stroke="#ccc" data-name="Rectangle 187" transform="translate(6.534 3.842)"><rect id="e" width="4" stroke="none"/><path d="M0-.5h4m0 1H0M.5 0" clip-path="url(#j)"/></g><path stroke="#e5e5e5" d="m10.145 2.795 1.389 1.491-1.389 1.332" data-name="Path 3039"/></g></g></g><g data-name="Group 976" transform="translate(90.053 235.079)"><rect width="30" height="9" fill="#fff" data-name="Rectangle 184" rx="3" transform="translate(-.053 -.079)"/><g fill="none" stroke="#e5e5e5" data-name="Group 968"><g data-name="Rectangle 185" transform="translate(10.947 3.921)"><path stroke="none" d="M0 0h6v1H0z"/><rect width="5" x=".5" y=".5"/></g><path d="M15.671 3.059 17.06 4.55l-1.389 1.332" data-name="Path 3038"/></g></g><g data-name="Group 977"><g fill="none" stroke="#fff" data-name="Rectangle 179" transform="translate(79 165.999)"><rect width="13" height="12" stroke="none" rx="5"/><rect width="12" height="11" x=".5" y=".5" rx="4.5"/></g><path fill="#fff" d="M84.5 174.999a1.5 1.5 0 0 1-.069-3 1.63 1.63 0 0 1-.716-1.333 1.729 1.729 0 0 1 1.785-1.667 1.729 1.729 0 0 1 1.786 1.667 1.63 1.63 0 0 1-.717 1.333 1.5 1.5 0 0 1-.069 3Z" data-name="Union 1"/></g></g><path fill="none" stroke="rgba(255,255,255,0.81)" stroke-width="2" d="M87 39.182s23.526 20.283 54.4 7.231 39.984 21.132 39.984 21.132" data-name="Path 3042"/><path fill="none" stroke="rgba(255,255,255,0.81)" stroke-width="2" d="M47.263 116.969s-25.078 33.515-9.542 65.227c3.659 7.47 21.209 23.993 31.78 32.32" data-name="Path 3043"/><path fill="none" stroke="rgba(255,255,255,0.81)" stroke-width="2" d="M140 212.2s12.7 8.349 23.477-8.888 11.85-48.584 18.583-51.277" data-name="Path 3046"/></svg>