<svg xmlns="http://www.w3.org/2000/svg" width="40" height="40" class="svg replaced-svg"><g fill="#1d00ff"><path d="M34.142 5.857a20.006 20.006 0 0 0-32.491 6.172 2 2 0 0 0-1.11 3.334 20.048 20.048 0 0 0 2.346 14.988 13.446 13.446 0 0 0-1.542 5.752 2 2 0 0 0 .656 3.891h10.666a2 2 0 0 0 1.62-.829A20 20 0 0 0 34.142 5.857ZM2.001 13.331h10.666a.667.667 0 1 1 0 1.333H2.001a.667.667 0 1 1 0-1.333Zm6.423 10.632a2.87 2.87 0 0 0-.445.574.79.79 0 0 1-1.292 0 2.873 2.873 0 0 0-.444-.573q-.308-.308-.59-.633h3.361q-.283.324-.59.632Zm1.6-1.966h-5.38a12.1 12.1 0 0 1-1.958-6h9.3a12.1 12.1 0 0 1-1.963 6Zm-4.723 2.906a1.539 1.539 0 0 1 .219 1.9 15.764 15.764 0 0 1-1-2.756q.368.446.781.856Zm.943 3.124a2.863 2.863 0 0 0 .833-1.84 2.13 2.13 0 0 0 .258.016 2.115 2.115 0 0 0 .256-.016 2.863 2.863 0 0 0 .833 1.84 12.114 12.114 0 0 1 3.455 6.9l-4.078-4.07a.667.667 0 0 0-.943 0L2.785 34.93a12.114 12.114 0 0 1 3.455-6.9Zm1.091 4.242 3.724 3.723H3.61Zm5.43.481.481.278.667-1.155-1.155-.667-.327.567a13.507 13.507 0 0 0-3.062-4.689 1.542 1.542 0 0 1 0-2.181 13.442 13.442 0 0 0 3.954-9.019 2 2 0 0 0-.656-3.881H6.14a16 16 0 1 1 13.861 23.992 15.834 15.834 0 0 1-6.845-1.535 13.459 13.459 0 0 0-.392-1.707ZM1.333 19.997a18.841 18.841 0 0 1 .17-2.515 13.392 13.392 0 0 0 1.214 3.821 17.121 17.121 0 0 0 1.845 6.579 13.572 13.572 0 0 0-.89 1.164 18.614 18.614 0 0 1-2.339-9.049Zm11.334 18.664H2.001a.667.667 0 1 1 0-1.333h10.666a.667.667 0 1 1 0 1.333Zm20.534-5.466a18.694 18.694 0 0 1-18.535 4.692 2 2 0 0 0-1.345-1.784v-.113a17.162 17.162 0 0 0 6.68 1.338A17.331 17.331 0 1 0 4.622 12.003H3.129a18.668 18.668 0 1 1 30.07 21.2Z" data-name="Path 2986"/><path d="M19.331 5.347h1.337v2.674h-1.337Z" data-name="Path 2987"/><path d="M31.979 19.329h2.674v1.337h-2.674Z" data-name="Path 2988"/><path d="M19.331 31.973h1.337v2.674h-1.337Z" data-name="Path 2989"/><path d="m12.087 7.631 1.158-.668.668 1.157-1.158.669Z" data-name="Path 2990"/><path d="m26.085 31.873 1.158-.669.668 1.158-1.157.669Z" data-name="Path 2991"/><path d="m31.209 27.241.668-1.158 1.158.669-.668 1.158Z" data-name="Path 2992"/><path d="m31.209 12.754 1.158-.668.668 1.157-1.157.669Z" data-name="Path 2993"/><path d="m26.085 8.121.669-1.158 1.157.669-.668 1.157Z" data-name="Path 2994"/><path d="m21.108 21.676 4.019 2.139-1.1.3.346 1.291 2.739-.734a.668.668 0 0 0 .473-.819l-.734-2.739-1.291.346.336 1.253-3.982-2.12a2 2 0 0 0-1.252-2.467v-7.19l.864.864.945-.945-2.005-2.005a.668.668 0 0 0-.945 0l-2.005 2.005.945.945.864-.864v7.19a2.005 2.005 0 1 0 1.785 3.555Zm-1.785-1.664a.668.668 0 1 1 .668.668.668.668 0 0 1-.669-.668Z" data-name="Path 2995"/></g></svg>