<svg xmlns="http://www.w3.org/2000/svg" class="svg replaced-svg" preserveAspectRatio="none" viewBox="0 0 190.54 224.151"><path fill="rgba(255,255,255,0.1)" stroke="#fff" d="M1.727 4.336c.237 1.694-3.049 24.237.152 54.72-.045 16.318-.115 35.173-.184 53.97 3.284 50.7-.357 101.557.031 104.374.787 5.713-6.711 6.045 35.662 3.591 18.94-1.1 50.323.062 79.631.8 36.064 3.909 68.036 1.13 68.842-4.386 1.455-9.975 2.184-1.995 1.818-37.505-.1-9.521.014-25.525.233-44.126-1.217-13.36.27-20.859.437-31.791-.6-44.943 1.514-85.277 1.514-85.277S192.047-.446 178.582.751c-6.085.541-38.179 1.2-72.594.487C65.042 2.389 22.103.751 22.103.751S.998-.851 1.727 4.336Z" data-name="Path 3015"/><g data-name="Group 955"><path fill="none" stroke="#fff" d="M59.062 187.396c3.912-2.442 65.047-5.232 70.912 0s2.447 20.232 2.447 20.232H59.062s-3.915-17.794 0-20.232Z" data-name="Path 3024"/><path fill="#fff" d="M80.214 196.232c.4-.532 29.191-.851 30.4.426s0 1.277 0 1.277h-30.4s-.407-1.171 0-1.703Z" data-name="Path 3025"/></g><g data-name="Group 960"><g fill="#fff" data-name="Group 954"><g data-name="Group 946"><path d="M24.393 48.204c1.092-.815 78.968-1.3 82.243.652s0 1.955 0 1.955H24.393s-1.09-1.792 0-2.607Z" data-name="Path 3018"/><path d="M107.608 61.746c-1.091.632-78.968 1.011-82.243-.506s0-1.517 0-1.517h82.243s1.09 1.39 0 2.023Z" data-name="Path 3019"/></g><g data-name="Group 945"><path d="M24.393 83.822c1.092-.643 78.968-1.029 82.243.514s0 1.543 0 1.543H24.393s-1.09-1.414 0-2.057Z" data-name="Path 3021"/><path d="M107.608 95.813c-1.091-.7-78.968-1.127-82.243.564s0 1.691 0 1.691h82.243s1.09-1.551 0-2.255Z" data-name="Path 3020"/></g><g data-name="Group 947"><path d="M24.393 118.68c1.092-.665 78.968-1.064 82.243.532s0 1.6 0 1.6H24.393s-1.09-1.467 0-2.132Z" data-name="Path 3021"/><path d="M107.607 132.262c-1.091.736-78.968 1.178-82.243-.589s0-1.767 0-1.767h82.243s1.091 1.619 0 2.356Z" data-name="Path 3020"/></g><g data-name="Group 948"><path d="M24.393 153.643c1.092-.807 78.968-1.292 82.243.646s0 1.938 0 1.938H24.393s-1.09-1.777 0-2.584Z" data-name="Path 3021"/><path d="M107.607 167.155c-1.091.674-78.968 1.078-82.243-.539s0-1.617 0-1.617h82.243s1.091 1.482 0 2.156Z" data-name="Path 3020"/></g></g><g fill="none" stroke="#fff" data-name="Group 956"><path d="M126.916 48.313c2.239-1.959 37.23-4.2 40.589 0s1.4 16.236 1.4 16.236h-41.988s-2.241-14.277-.001-16.236Z" data-name="Path 3016"/><g data-name="Group 950"><path d="M149.274 58.497s3.617-.1 4.474-1.618-3.618-5.045-3.618-5.045" data-name="Path 3026"/><path d="M140.444 55.934h13.253" data-name="Path 3027"/></g></g><g fill="none" stroke="#fff" data-name="Group 957"><path d="M126.916 84.058c2.239-1.959 37.23-4.2 40.589 0s1.4 16.236 1.4 16.236h-41.988s-2.241-14.277-.001-16.236Z" data-name="Path 3017"/><g data-name="Group 951"><path d="M149.274 94.224s3.617-.1 4.474-1.618-3.618-5.045-3.618-5.045" data-name="Path 3026"/><path d="M140.444 91.661h13.253" data-name="Path 3027"/></g></g><g fill="none" stroke="#fff" data-name="Group 958"><path d="M126.916 118.929c2.239-1.959 37.23-4.2 40.589 0s1.4 16.236 1.4 16.236h-41.988s-2.241-14.277-.001-16.236Z" data-name="Path 3022"/><g data-name="Group 952"><path d="M149.274 128.861s3.617-.1 4.474-1.618-3.618-5.045-3.618-5.045" data-name="Path 3026"/><path d="M140.444 126.298h13.253" data-name="Path 3027"/></g></g><g fill="none" stroke="#fff" data-name="Group 959"><path d="M126.916 153.8c2.239-1.959 37.23-4.2 40.589 0s1.4 16.236 1.4 16.236h-41.988s-2.241-14.277-.001-16.236Z" data-name="Path 3023"/><g data-name="Group 953"><path d="M149.274 163.499s3.617-.1 4.474-1.618-3.618-5.045-3.618-5.045" data-name="Path 3026"/><path d="M140.444 160.936h13.253" data-name="Path 3027"/></g></g></g><path fill="none" stroke="#fff" d="M24.902 16.084c1.332-2.27 22.135-4.864 24.132 0s.832 18.806.832 18.806H24.902s-1.331-16.536 0-18.806Z" data-name="Path 3028"/><path fill="#fff" d="M38.039 16.422c2.5.23 3.556 1.592 3.556 3.556s-1.844 4-3.556 3.556-3.556-1.592-3.556-3.556 1.054-3.786 3.556-3.556Z" data-name="Path 3029"/><path fill="#fff" d="M32.61 23.486h10.1a.835.835 0 0 1 .777.884v6.185a.835.835 0 0 1-.777.884 33.517 33.517 0 0 0-5.322 0 26.083 26.083 0 0 1-4.78 0s-.775-.396-.775-.884V24.37a.835.835 0 0 1 .777-.884Z" data-name="Path 3030"/><g fill="#fff" data-name="Group 962"><path d="M114.91 20.856c2.5.23 3.556 1.592 3.556 3.556s-1.844 4-3.556 3.556-3.556-1.592-3.556-3.556 1.054-3.786 3.556-3.556Z" data-name="Path 3031"/><path d="M124.629 20.856c2.5.23 3.556 1.592 3.556 3.556s-1.844 4-3.556 3.556-3.556-1.592-3.556-3.556 1.054-3.786 3.556-3.556Z" data-name="Path 3032"/><path d="M134.348 20.856c2.5.23 3.556 1.592 3.556 3.556s-1.844 4-3.556 3.556-3.556-1.592-3.556-3.556 1.054-3.786 3.556-3.556Z" data-name="Path 3033"/><path d="M144.068 20.856c2.5.23 3.556 1.592 3.556 3.556s-1.844 4-3.556 3.556-3.556-1.592-3.556-3.556 1.054-3.786 3.556-3.556Z" data-name="Path 3034"/></g><g fill="none" stroke="#fff" data-name="Group 961"><path d="M157.777 20.328s10-.845 10.279 0" data-name="Path 3035"/><path d="M157.777 23.862s10-.845 10.279 0" data-name="Path 3036"/><path d="M157.777 27.396s10-.845 10.279 0" data-name="Path 3037"/></g></svg>