<svg xmlns="http://www.w3.org/2000/svg" xmlns:xlink="http://www.w3.org/1999/xlink" class="svg replaced-svg" preserveAspectRatio="none" viewBox="0 0 190 222"><defs><clipPath id="b"><use xlink:href="#a"/></clipPath></defs><g fill="rgba(255,255,255,0.15)" stroke="#fff" data-name="Rectangle 176"><rect width="190" height="222" stroke="none" rx="6"/><rect width="189" height="221" x=".5" y=".5" fill="none" rx="5.5"/></g><g fill="#fff" data-name="Group 965" transform="translate(110.558 18.343)"><circle cx="3.5" cy="3.5" r="3.5" data-name="Ellipse 34" transform="translate(.442 -.343)"/><circle cx="3.5" cy="3.5" r="3.5" data-name="Ellipse 35" transform="translate(9.442 -.343)"/><circle cx="3.5" cy="3.5" r="3.5" data-name="Ellipse 36" transform="translate(19.442 -.343)"/><circle cx="3.5" cy="3.5" r="3.5" data-name="Ellipse 37" transform="translate(29.442 -.343)"/></g><g fill="#fff" data-name="Group 966"><path d="M157 17h10v1h-10z" data-name="Rectangle 179"/><path d="M157 21h10v1h-10z" data-name="Rectangle 180"/><path d="M157 25h10v1h-10z" data-name="Rectangle 181"/></g><g fill="#fff" data-name="Group 967"><path d="M22 47h85v4H22z" data-name="Rectangle 182"/><path d="M22 58h85v5H22z" data-name="Rectangle 183"/></g><g fill="#fff" data-name="Group 971"><path d="M22 82h85v5H22z" data-name="Rectangle 182"/><path d="M22 94h85v4H22z" data-name="Rectangle 183"/></g><g fill="#fff" data-name="Group 973"><path d="M22 118h85v4H22z" data-name="Rectangle 182"/><path d="M22 129h85v5H22z" data-name="Rectangle 183"/></g><g fill="#fff" data-name="Group 975"><path d="M22 153h85v4H22z" data-name="Rectangle 182"/><path d="M22 165h85v4H22z" data-name="Rectangle 183"/></g><g data-name="Group 969" transform="translate(123.825 45.108)"><rect width="45" height="20" fill="#fff" data-name="Rectangle 184" rx="3" transform="translate(.175 -.108)"/><g fill="none" stroke="#cecece" data-name="Group 968"><g data-name="Rectangle 185" transform="translate(15.175 9.893)"><path stroke="none" d="M0 0h13v1H0z"/><rect width="12" x=".5" y=".5"/></g><path d="m25.082 6.606 3.5 3.759-3.5 3.358" data-name="Path 3038"/></g></g><g data-name="Group 970" transform="translate(123.825 80.486)"><rect width="45" height="20" fill="#fff" data-name="Rectangle 184" rx="3" transform="translate(.175 -.486)"/><g fill="none" stroke="#cecece" data-name="Group 968"><g data-name="Rectangle 185" transform="translate(15.175 9.514)"><path stroke="none" d="M0 0h13v1H0z"/><rect width="12" x=".5" y=".5"/></g><path d="m25.082 6.606 3.5 3.759-3.5 3.358" data-name="Path 3038"/></g></g><g data-name="Group 972" transform="translate(123.825 115.865)"><rect width="45" height="19" fill="#fff" data-name="Rectangle 184" rx="3" transform="translate(.175 .135)"/><g fill="none" data-name="Group 968"><g stroke="#919191" data-name="Rectangle 185" transform="translate(15.175 10.136)"><rect id="a" width="13" stroke="none"/><path d="M0-.5h13m0 1H0M.5 0" clip-path="url(#b)"/></g><path stroke="#cecece" d="m25.082 6.606 3.5 3.759-3.5 3.358" data-name="Path 3038"/><g stroke="#cecece" data-name="Rectangle 188" transform="translate(15.175 10.136)"><path stroke="none" d="M0 0h13v1H0z"/><rect width="12" x=".5" y=".5"/></g></g></g><g data-name="Group 974" transform="translate(123.825 151.243)"><rect width="45" height="20" fill="#fff" data-name="Rectangle 184" rx="3" transform="translate(.175 -.243)"/><g fill="none" stroke="#cecece" data-name="Group 968"><g data-name="Rectangle 185" transform="translate(15.175 9.757)"><path stroke="none" d="M0 0h13v1H0z"/><rect width="12" x=".5" y=".5"/></g><path d="m25.082 6.606 3.5 3.759-3.5 3.358" data-name="Path 3038"/></g></g><g data-name="Group 976" transform="translate(55.721 183.968)"><rect width="78" height="24" fill="#fff" data-name="Rectangle 184" rx="3" transform="translate(.279 .032)"/><g fill="none" stroke="#cecece" data-name="Group 968"><g data-name="Rectangle 185" transform="translate(30.279 12.032)"><path stroke="none" d="M0 0h13v1H0z"/><rect width="12" x=".5" y=".5"/></g><path d="m40.485 9.093 3.5 3.759-3.5 3.358" data-name="Path 3038"/></g></g><g data-name="Group 977"><g fill="none" stroke="#fff" data-name="Rectangle 179" transform="translate(25 8)"><rect width="31" height="27" stroke="none" rx="6"/><rect width="30" height="26" x=".5" y=".5" rx="5.5"/></g><path fill="#fff" d="M38.5 30a4.5 4.5 0 0 1-4.5-4.5 4.5 4.5 0 0 1 4.031-4.475A4.994 4.994 0 0 1 36 17a5 5 0 0 1 5-5 5 5 0 0 1 5 5 5 5 0 0 1-2.032 4.025A4.5 4.5 0 0 1 48 25.5a4.5 4.5 0 0 1-4.5 4.5Z" data-name="Union 1"/></g></svg>