<?xml version="1.0" standalone="no"?>
<!DOCTYPE svg PUBLIC "-//W3C//DTD SVG 20010904//EN"
 "http://www.w3.org/TR/2001/REC-SVG-20010904/DTD/svg10.dtd">
<svg version="1.0" xmlns="http://www.w3.org/2000/svg"
 width="100.000000pt" height="100.000000pt" viewBox="0 0 100.000000 100.000000"
 preserveAspectRatio="xMidYMid meet">
<metadata>
Created by potrace 1.14, written by Peter Selinger 2001-2017
</metadata>
<g transform="translate(0.000000,100.000000) scale(0.100000,-0.100000)"
fill="#000000" stroke="none">
<path d="M113 976 l-23 -24 0 -476 0 -476 250 0 c214 0 250 2 250 15 0 8 12
18 28 21 15 4 40 20 56 36 17 15 37 28 46 28 20 0 70 51 70 72 0 8 23 38 51
67 l52 51 -5 57 c-6 66 -2 83 18 83 22 0 20 158 -2 175 -11 8 -17 28 -18 63
-2 47 -6 55 -49 97 -26 25 -47 53 -47 62 0 22 -49 73 -70 73 -9 0 -29 13 -44
29 -15 16 -41 31 -57 35 -17 3 -29 12 -29 21 0 13 -30 15 -227 15 -227 0 -228
0 -250 -24z m450 -232 c31 -31 57 -61 57 -69 0 -7 9 -24 20 -38 17 -22 20 -40
20 -137 0 -97 -3 -115 -20 -137 -11 -14 -20 -32 -20 -40 0 -8 -26 -39 -57 -69
l-58 -54 -67 0 c-59 0 -70 3 -93 25 l-25 26 0 247 0 247 25 28 c23 24 33 27
93 27 l68 0 57 -56z"/>
</g>
</svg>
