<?xml version="1.0" standalone="no"?>
<!DOCTYPE svg PUBLIC "-//W3C//DTD SVG 20010904//EN"
 "http://www.w3.org/TR/2001/REC-SVG-20010904/DTD/svg10.dtd">
<svg version="1.0" xmlns="http://www.w3.org/2000/svg"
 width="121.000000pt" height="121.000000pt" viewBox="0 0 121.000000 121.000000"
 preserveAspectRatio="xMidYMid meet">
<metadata>
Created by potrace 1.14, written by Peter Selinger 2001-2017
</metadata>
<g transform="translate(0.000000,121.000000) scale(0.100000,-0.100000)"
fill="#000000" stroke="none">
<path d="M382 925 c-9 -11 -12 -83 -10 -312 l3 -298 145 -3 c146 -3 170 2 213
37 9 8 27 19 39 25 13 6 28 22 34 34 6 12 23 36 38 52 20 23 26 40 26 75 0 25
5 45 10 45 6 0 10 25 10 55 0 30 -4 55 -10 55 -5 0 -10 17 -10 37 0 26 -8 45
-26 64 -15 15 -32 38 -38 51 -6 12 -21 28 -34 34 -12 6 -30 17 -39 25 -44 35
-64 39 -200 39 -107 -1 -141 -4 -151 -15z m284 -147 c46 -52 54 -73 54 -151 0
-83 -14 -119 -60 -160 -22 -20 -40 -27 -73 -27 -24 0 -48 5 -55 12 -17 17 -17
329 0 346 7 7 33 12 58 12 39 0 50 -5 76 -32z"/>
</g>
</svg>
